<?xml version="1.0" standalone="no"?>
<!DOCTYPE svg PUBLIC "-//W3C//DTD SVG 20010904//EN"
 "http://www.w3.org/TR/2001/REC-SVG-20010904/DTD/svg10.dtd">
<svg version="1.0" xmlns="http://www.w3.org/2000/svg"
 width="500.000000pt" height="500.000000pt" viewBox="0 0 500.000000 500.000000"
 preserveAspectRatio="xMidYMid meet">

<g transform="translate(0.000000,500.000000) scale(0.100000,-0.100000)"
fill="#000000" stroke="none">
<path d="M1853 2817 c-632 -633 -660 -663 -678 -748 -4 -16 -10 -27 -13 -25
-4 2 -6 -17 -4 -43 2 -27 -3 -62 -11 -82 l-15 -34 -2 35 c-1 19 -2 46 -2 60 0
23 0 23 -5 3 -4 -21 -25 -29 -56 -24 -18 3 6 -106 38 -174 18 -38 58 -100 90
-136 68 -79 672 -663 689 -667 12 -3 74 52 454 396 180 164 182 167 182 207
-1 48 -28 153 -30 115 -1 -14 -4 -19 -7 -11 -5 11 -7 11 -15 0 -7 -10 -8 -6
-5 13 3 22 1 26 -12 19 -14 -8 -16 -3 -12 35 2 27 -1 44 -8 44 -7 0 -11 -38
-11 -116 0 -114 0 -115 -22 -112 -19 2 -24 10 -26 41 -3 33 -6 37 -31 37 -27
0 -29 3 -35 53 -3 28 -6 89 -6 135 l0 82 -70 0 -70 0 0 135 0 136 -30 6 c-30
5 -30 6 -30 70 0 75 5 76 -110 -26 l-69 -62 6 -275 6 -274 -37 0 -36 0 0 181
c0 176 -1 181 -19 168 -10 -8 -60 -45 -110 -83 l-92 -69 3 -168 c2 -93 0 -169
-3 -169 -3 0 -35 31 -71 68 -68 70 -98 134 -98 206 0 45 25 130 48 168 12 18
222 233 468 478 245 245 459 463 475 484 27 36 29 46 29 128 0 48 -1 88 -2 88
-3 0 -206 -198 -588 -574 -141 -138 -311 -304 -378 -369 -99 -94 -129 -130
-153 -180 -16 -34 -29 -70 -29 -79 0 -10 -3 -18 -7 -18 -5 0 -7 -34 -5 -75 3
-52 0 -75 -8 -75 -7 0 -9 9 -6 23 3 12 3 16 0 9 -7 -15 -24 -6 -24 14 0 9 5
13 13 9 6 -4 4 0 -5 8 -34 27 -14 162 38 257 20 37 175 197 581 598 304 301
557 558 563 573 6 14 9 69 8 122 l-3 97 -632 -633z m-696 -959 c-3 -8 -6 -5
-6 6 -1 11 2 17 5 13 3 -3 4 -12 1 -19z m1001 -201 c2 -162 0 -187 -13 -187
-13 0 -15 27 -15 191 0 148 3 190 13 187 9 -4 13 -53 15 -191z"/>
<path d="M2606 2804 c-8 -20 -6 -701 1 -757 l5 -39 192 4 c173 3 196 5 241 26
85 39 119 84 131 171 10 75 -10 129 -68 183 l-50 48 31 26 c46 38 61 75 61
144 0 72 -24 128 -70 160 -57 41 -112 50 -296 50 -150 0 -173 -2 -178 -16z
m363 -140 c39 -23 51 -72 28 -120 -20 -41 -68 -56 -165 -52 l-67 3 -3 84 c-2
46 0 91 3 99 8 21 163 10 204 -14z m11 -319 c38 -20 50 -43 50 -99 0 -79 -62
-112 -197 -105 -76 4 -73 0 -73 115 l0 104 95 0 c66 0 105 -5 125 -15z"/>
<path d="M3393 2804 c-80 -29 -153 -132 -153 -216 0 -28 0 -28 70 -28 l70 0 0
31 c0 41 15 66 50 84 59 30 119 16 145 -35 45 -87 6 -157 -211 -380 l-134
-138 0 -50 c0 -31 5 -51 13 -54 10 -3 383 -3 465 1 20 1 22 6 22 61 l0 60
-102 1 c-112 0 -178 5 -186 14 -3 3 18 27 48 53 79 69 172 182 203 246 91 185
0 355 -193 363 -40 1 -81 -3 -107 -13z"/>
<path d="M3975 2808 c-75 -26 -136 -98 -161 -189 -19 -73 -19 -325 1 -398 21
-79 63 -141 119 -176 68 -41 168 -47 245 -15 64 28 119 89 146 161 17 46 20
79 20 229 0 172 -1 176 -29 238 -31 67 -87 125 -142 148 -39 16 -155 17 -199
2z m150 -130 c14 -6 36 -28 48 -47 20 -33 22 -51 25 -207 4 -195 -5 -229 -68
-272 -57 -38 -131 -16 -167 51 -26 46 -26 354 0 409 32 69 97 96 162 66z"/>
</g>
</svg>
